<svg width="16" height="17" viewBox="0 0 16 17" fill="none" xmlns="http://www.w3.org/2000/svg">
<path d="M8 0.666667C7.17591 0.666667 6.37033 0.911037 5.68512 1.36888C4.99992 1.82672 4.46587 2.47746 4.1505 3.23882C3.83514 4.00018 3.75262 4.83796 3.91339 5.64621C4.07417 6.45446 4.471 7.19689 5.05372 7.77961C5.63644 8.36233 6.37887 8.75917 7.18712 8.91994C7.99538 9.08071 8.83316 8.9982 9.59451 8.68283C10.3559 8.36747 11.0066 7.83341 11.4645 7.14821C11.9223 6.463 12.1667 5.65742 12.1667 4.83333C12.1667 3.72826 11.7277 2.66846 10.9463 1.88706C10.1649 1.10565 9.10507 0.666667 8 0.666667V0.666667ZM8 7.33333C7.50555 7.33333 7.0222 7.18671 6.61107 6.91201C6.19995 6.6373 5.87952 6.24686 5.6903 5.79004C5.50108 5.33323 5.45157 4.83056 5.54804 4.34561C5.6445 3.86066 5.8826 3.4152 6.23223 3.06557C6.58186 2.71594 7.02732 2.47783 7.51227 2.38137C7.99723 2.28491 8.49989 2.33442 8.95671 2.52363C9.41352 2.71285 9.80397 3.03328 10.0787 3.44441C10.3534 3.85553 10.5 4.33888 10.5 4.83333C10.5 5.49637 10.2366 6.13226 9.76777 6.6011C9.29893 7.06994 8.66304 7.33333 8 7.33333V7.33333ZM15.5 16.5V15.6667C15.5 14.1196 14.8854 12.6358 13.7915 11.5419C12.6975 10.4479 11.2138 9.83333 9.66667 9.83333H6.33333C4.78624 9.83333 3.30251 10.4479 2.20854 11.5419C1.11458 12.6358 0.5 14.1196 0.5 15.6667V16.5H2.16667V15.6667C2.16667 14.5616 2.60565 13.5018 3.38706 12.7204C4.16846 11.939 5.22826 11.5 6.33333 11.5H9.66667C10.7717 11.5 11.8315 11.939 12.6129 12.7204C13.3943 13.5018 13.8333 14.5616 13.8333 15.6667V16.5H15.5Z" fill="black"/>
</svg>
