<svg width="20" height="21" viewBox="0 0 20 21" fill="none" xmlns="http://www.w3.org/2000/svg">
<path d="M10 0C8.90122 0 7.82711 0.324113 6.9135 0.931352C5.99989 1.53859 5.28782 2.40168 4.86734 3.41149C4.44685 4.42129 4.33683 5.53245 4.55119 6.60445C4.76556 7.67645 5.29467 8.66114 6.07163 9.43401C6.84859 10.2069 7.83849 10.7332 8.91617 10.9464C9.99384 11.1597 11.1109 11.0502 12.126 10.632C13.1412 10.2137 14.0088 9.50537 14.6193 8.59657C15.2297 7.68777 15.5556 6.61932 15.5556 5.52632C15.5556 4.06065 14.9702 2.65501 13.9284 1.61862C12.8865 0.582235 11.4734 0 10 0V0ZM10 8.8421C9.34073 8.8421 8.69626 8.64764 8.1481 8.28329C7.59994 7.91895 7.17269 7.40109 6.9204 6.79521C6.66811 6.18933 6.6021 5.52264 6.73072 4.87944C6.85933 4.23624 7.1768 3.64542 7.64298 3.1817C8.10915 2.71798 8.7031 2.40218 9.3497 2.27424C9.9963 2.1463 10.6665 2.21196 11.2756 2.46293C11.8847 2.71389 12.4053 3.13888 12.7716 3.68416C13.1378 4.22944 13.3333 4.87051 13.3333 5.52632C13.3333 6.40572 12.9821 7.2491 12.357 7.87093C11.7319 8.49276 10.8841 8.8421 10 8.8421V8.8421ZM20 21V19.8947C20 17.8428 19.1806 15.8749 17.7219 14.424C16.2633 12.973 14.285 12.1579 12.2222 12.1579H7.77778C5.71498 12.1579 3.73667 12.973 2.27806 14.424C0.819442 15.8749 0 17.8428 0 19.8947V21H2.22222V19.8947C2.22222 18.4291 2.80754 17.0234 3.84941 15.987C4.89128 14.9507 6.30435 14.3684 7.77778 14.3684H12.2222C13.6956 14.3684 15.1087 14.9507 16.1506 15.987C17.1925 17.0234 17.7778 18.4291 17.7778 19.8947V21H20Z" fill="#9AA9E0"/>
</svg>
