<svg width="20" height="21" viewBox="0 0 20 22" fill="none" xmlns="http://www.w3.org/2000/svg">
<path d="M10 0C8.90122 0 7.82711 0.329257 6.9135 0.946135C5.99989 1.56301 5.28782 2.43981 4.86734 3.46564C4.44685 4.49147 4.33683 5.62026 4.55119 6.70928C4.76556 7.7983 5.29467 8.79862 6.07163 9.58376C6.84859 10.3689 7.83849 10.9036 8.91617 11.1202C9.99384 11.3368 11.1109 11.2256 12.126 10.8007C13.1412 10.3758 14.0088 9.65625 14.6193 8.73303C15.2297 7.8098 15.5556 6.72439 15.5556 5.61404C15.5556 4.1251 14.9702 2.69715 13.9284 1.64431C12.8865 0.591477 11.4734 0 10 0V0ZM10 8.98246C9.34073 8.98246 8.69626 8.7849 8.1481 8.41477C7.59994 8.04465 7.17269 7.51857 6.9204 6.90307C6.66811 6.28758 6.6021 5.6103 6.73072 4.95689C6.85933 4.30348 7.1768 3.70328 7.64298 3.2322C8.10915 2.76112 8.7031 2.44031 9.3497 2.31034C9.9963 2.18037 10.6665 2.24707 11.2756 2.50202C11.8847 2.75697 12.4053 3.18871 12.7716 3.74264C13.1378 4.29657 13.3333 4.94782 13.3333 5.61404C13.3333 6.5074 12.9821 7.36417 12.357 7.99587C11.7319 8.62757 10.8841 8.98246 10 8.98246V8.98246ZM20 21.3333V20.2105C20 18.126 19.1806 16.1269 17.7219 14.6529C16.2633 13.1789 14.285 12.3509 12.2222 12.3509H7.77778C5.71498 12.3509 3.73667 13.1789 2.27806 14.6529C0.819442 16.1269 0 18.126 0 20.2105V21.3333H2.22222V20.2105C2.22222 18.7216 2.80754 17.2936 3.84941 16.2408C4.89128 15.188 6.30435 14.5965 7.77778 14.5965H12.2222C13.6956 14.5965 15.1087 15.188 16.1506 16.2408C17.1925 17.2936 17.7778 18.7216 17.7778 20.2105V21.3333H20Z" fill="#E3E3E3"/>
</svg>
